<svg xmlns="http://www.w3.org/2000/svg" viewBox="0 0 800 65" width="100%">
  <defs>
    <clipPath id="bar-clip">
      <rect width="800" height="10" rx="5" />
    </clipPath>
  </defs>
  <g clip-path="url(#bar-clip)">
    <rect x="0.00" y="0" width="287.19" height="10" fill="#3178c6" />
    <rect x="287.19" y="0" width="254.96" height="10" fill="#89e051" />
    <rect x="542.15" y="0" width="159.08" height="10" fill="#f1e05a" />
    <rect x="701.23" y="0" width="74.68" height="10" fill="#3572a5" />
    <rect x="775.91" y="0" width="12.51" height="10" fill="#1e4aec" />
    <rect x="788.42" y="0" width="11.03" height="10" fill="#563d7c" />
    <rect x="799.45" y="0" width="0.55" height="10" fill="#858585" />
  </g>
  <circle cx="10" cy="31" r="5" fill="#3178c6" />
  <text x="22" y="35" font-family="system-ui, -apple-system, sans-serif" font-size="12" fill="#c9d1d9" font-weight="500">TypeScript <tspan fill="#8b949e">(35.9%)</tspan></text>
  <circle cx="270" cy="31" r="5" fill="#89e051" />
  <text x="282" y="35" font-family="system-ui, -apple-system, sans-serif" font-size="12" fill="#c9d1d9" font-weight="500">Shell <tspan fill="#8b949e">(31.9%)</tspan></text>
  <circle cx="530" cy="31" r="5" fill="#f1e05a" />
  <text x="542" y="35" font-family="system-ui, -apple-system, sans-serif" font-size="12" fill="#c9d1d9" font-weight="500">JavaScript <tspan fill="#8b949e">(19.9%)</tspan></text>
  <circle cx="10" cy="51" r="5" fill="#3572a5" />
  <text x="22" y="55" font-family="system-ui, -apple-system, sans-serif" font-size="12" fill="#c9d1d9" font-weight="500">Python <tspan fill="#8b949e">(9.3%)</tspan></text>
  <circle cx="270" cy="51" r="5" fill="#1e4aec" />
  <text x="282" y="55" font-family="system-ui, -apple-system, sans-serif" font-size="12" fill="#c9d1d9" font-weight="500">Scheme <tspan fill="#8b949e">(1.6%)</tspan></text>
  <circle cx="530" cy="51" r="5" fill="#563d7c" />
  <text x="542" y="55" font-family="system-ui, -apple-system, sans-serif" font-size="12" fill="#c9d1d9" font-weight="500">CSS <tspan fill="#8b949e">(1.4%)</tspan></text>
</svg>